# xmcd
#
# Track frame offsets: 
#        150
#        27247
#        45942
#        68330
#        96597
#        116620
#        137295
#        154157
#        191297
#        217272
#
# Disc length: 3173 seconds
#
# Revision: 3
# Processed by: cddbd v1.5.2PL0 Copyright (c) Steve Scherf et al.
# Submitted via: ExactAudioCopy v0.90b4
#
DISCID=800c630a
DTITLE=Acumen - Territory=Universe
DYEAR=1996
DGENRE=Industrial
TTITLE0=Stone Farm
TTITLE1=DJ Entrify (© mix)
TTITLE2=Candy Prowled
TTITLE3=You Deal With This
TTITLE4=Queener
TTITLE5=Nothing Changes
TTITLE6=Mister Sandman I Am
TTITLE7=Crazy Stalked Eyes
TTITLE8=Fuckface
TTITLE9=Mike (Thyroid mix)
EXTD=
EXTT0=
EXTT1=
EXTT2=
EXTT3=
EXTT4=
EXTT5=
EXTT6=
EXTT7=
EXTT8=
EXTT9=
PLAYORDER=
